<svg width="3264" height="983" viewBox="0 0 3264 983" fill="none" xmlns="http://www.w3.org/2000/svg">
<path fill-rule="evenodd" clip-rule="evenodd" d="M-0.5 0C1087.5 0 2175.5 0 3263.5 0C3263.5 327.667 3263.5 655.333 3263.5 983C2175.5 983 1087.5 983 -0.5 983C-0.5 655.333 -0.5 327.667 -0.5 0Z" fill="#FEFEFE"/>
<path fill-rule="evenodd" clip-rule="evenodd" d="M982.5 100.5C939.167 100.5 895.833 100.5 852.5 100.5C852.5 101.5 852.5 102.5 852.5 103.5C851.566 102.43 851.232 101.1 851.5 99.5001C895.337 99.1701 939.003 99.5001 982.5 100.5Z" fill="#DEDEDE"/>
<path fill-rule="evenodd" clip-rule="evenodd" d="M982.5 100.5C982.348 104.14 980.682 106.81 977.5 108.5C978.957 106.37 979.957 104.04 980.5 101.5C938.167 101.5 895.833 101.5 853.5 101.5C853.704 103.69 854.37 105.69 855.5 107.5C853.738 106.74 852.738 105.4 852.5 103.5C852.5 102.5 852.5 101.5 852.5 100.5C895.833 100.5 939.167 100.5 982.5 100.5Z" fill="#9A9A9A"/>
<path fill-rule="evenodd" clip-rule="evenodd" d="M977.5 108.5C977.672 109.49 977.338 110.16 976.5 110.5C974.412 112.34 973.079 114.67 972.5 117.5C969.436 120.96 967.436 124.96 966.5 129.5C965.5 129.83 964.833 130.5 964.5 131.5C962.75 132.66 961.75 134.33 961.5 136.5C957.274 144.44 952.94 152.44 948.5 160.5C947.596 161.21 947.263 162.21 947.5 163.5C951.833 163.5 956.167 163.5 960.5 163.5C969.23 165.68 978.23 166.68 987.5 166.5C993.159 168.78 999.159 169.78 1005.5 169.5C1010.13 171.76 1015.13 172.76 1020.5 172.5C1024.08 174.73 1028.08 175.73 1032.5 175.5C1035.15 177.29 1038.15 178.29 1041.5 178.5C1043.5 178.83 1045.5 179.17 1047.5 179.5C1047.88 180.93 1048.88 181.76 1050.5 182C1052.81 182.5 1055.14 182.66 1057.5 182.5C1064.26 184.98 1070.93 187.64 1077.5 190.5C1083.57 193.61 1089.9 196.28 1096.5 198.5C1147.83 220.96 1190.67 254.63 1225 299.5C1227.63 304.3 1230.46 308.96 1233.5 313.5C1234 317.86 1236 321.19 1239.5 323.5C1245.07 331.1 1249.4 339.44 1252.5 348.5C1252.8 352.79 1254.46 356.46 1257.5 359.5C1257.5 359.83 1257.5 360.17 1257.5 360.5C1257.38 365.46 1259.04 369.46 1262.5 372.5C1262.41 375.15 1263.08 377.49 1264.5 379.5C1264.69 382.86 1265.69 385.86 1267.5 388.5C1267.71 394.22 1269.05 399.55 1271.5 404.5C1271.29 407.5 1271.96 410.16 1273.5 412.5C1274.42 418.05 1275.42 423.72 1276.5 429.5C1276.5 431.83 1276.5 434.17 1276.5 436.5C1247.83 436.5 1219.17 436.5 1190.5 436.5C1004 436.17 817.666 436.5 631.5 437.5C622.983 437.17 614.65 437.51 606.5 438.5C603.544 450.33 601.544 462.33 600.5 474.5C598.85 480.25 598.184 486.25 598.5 492.5C597.518 495.96 597.185 499.63 597.5 503.5C596.168 511.97 595.502 520.81 595.5 530C595.502 539.19 596.168 548.03 597.5 556.5C598.443 571.6 600.109 586.6 602.5 601.5C603.193 606.68 604.193 611.68 605.5 616.5C610.98 643.29 619.98 668.62 632.5 692.5C633.363 695.92 634.53 699.26 636 702.5C636.671 703.25 637.504 703.59 638.5 703.5C643.484 711.16 648.484 718.82 653.5 726.5C654.288 729.81 655.788 732.81 658 735.5C659.129 737.14 660.629 738.14 662.5 738.5C683.271 764.44 707.938 785.94 736.5 803C738.833 803.67 741.167 803.67 743.5 803C752.614 799.61 761.614 795.94 770.5 792C780.478 786.68 790.145 780.84 799.5 774.5C805.225 770.95 810.559 766.79 815.5 762C819.439 758.57 822.772 754.74 825.5 750.5C834.901 741.94 842.567 732.27 848.5 721.5C851.164 719.52 852.831 716.85 853.5 713.5C856.68 711.73 858.68 709.06 859.5 705.5C859.797 702.24 861.13 699.57 863.5 697.5C866.093 694.45 867.759 690.78 868.5 686.5C871.939 680.38 875.106 674.05 878 667.5C879.149 664.61 879.649 661.61 879.5 658.5C879.232 656.9 879.566 655.57 880.5 654.5C882.955 650.27 884.289 645.6 884.5 640.5C886.725 633.22 888.392 625.72 889.5 618C1019.17 617.67 1148.83 617.17 1278.5 616.5C1278.5 617.83 1278.5 619.17 1278.5 620.5C1276.64 629.58 1274.97 638.58 1273.5 647.5C1271.51 651.5 1270.51 655.83 1270.5 660.5C1269.34 663.76 1268.34 667.09 1267.5 670.5C1263.19 677.1 1260.86 684.43 1260.5 692.5C1258.42 695.26 1256.58 698.26 1255 701.5C1254.5 703.47 1254.34 705.47 1254.5 707.5C1253.74 710 1252.74 712.34 1251.5 714.5C1247.07 718.02 1244.74 722.69 1244.5 728.5C1241.91 730.01 1240.57 732.34 1240.5 735.5C1209.27 787.55 1166.94 827.55 1113.5 855.5C1110.91 855.46 1108.91 856.46 1107.5 858.5C1104.78 858.39 1102.78 859.39 1101.5 861.5C1101.17 861.5 1100.83 861.5 1100.5 861.5C1098.03 861.75 1096.03 862.75 1094.5 864.5C1091.65 864.55 1089.32 865.55 1087.5 867.5C1086.51 867.33 1085.84 867.66 1085.5 868.5C1080.21 868.68 1075.55 870.35 1071.5 873.5C1068.51 873.9 1065.85 874.9 1063.5 876.5C1060.43 878.3 1057.09 879.3 1053.5 879.5C1049.68 879.21 1046.34 880.21 1043.5 882.5C1042.43 883.43 1041.1 883.77 1039.5 883.5C1032.46 884.2 1025.8 885.86 1019.5 888.5C1011.72 888.08 1004.38 889.42 997.5 892.5C995.735 893.46 993.735 893.79 991.5 893.5C986.63 893.69 981.964 894.36 977.5 895.5C965.586 895.31 953.92 896.31 942.5 898.5C922.167 899.83 901.833 899.83 881.5 898.5C865.957 896.95 850.29 895.28 834.5 893.5C833.5 893.5 832.5 893.5 831.5 893.5C823.391 891.31 815.058 889.64 806.5 888.5C802.2 888.28 798.2 887.28 794.5 885.5C792.401 884.39 790.067 883.72 787.5 883.5C785.901 883.77 784.568 883.43 783.5 882.5C780.808 879.86 777.475 878.86 773.5 879.5C771.485 878.08 769.152 877.41 766.5 877.5C757.501 874.76 748.834 871.43 740.5 867.5C737.487 863.67 733.487 862 728.5 862.5C724.866 858.28 720.199 855.94 714.5 855.5C712.119 851.25 708.453 849.25 703.5 849.5C686.612 840.56 670.945 829.89 656.5 817.5C655.415 815.41 653.749 814.08 651.5 813.5C649.611 812.4 647.945 811.06 646.5 809.5C645.474 806.63 643.807 804.13 641.5 802C637.365 799.36 633.699 796.2 630.5 792.5C629.583 791.87 628.583 791.54 627.5 791.5C612.958 775.64 599.625 758.98 587.5 741.5C587.408 737.32 585.741 733.98 582.5 731.5C575.721 722.2 570.054 712.2 565.5 701.5C565.269 695.46 562.936 690.46 558.5 686.5C558.5 686.17 558.5 685.83 558.5 685.5C558.489 683.45 558.156 681.45 557.5 679.5C555.842 675.94 554.175 672.61 552.5 669.5C548.278 659.96 545.278 649.96 543.5 639.5C543.279 636.93 542.612 634.6 541.5 632.5C541.477 627.13 540.977 621.79 540 616.5C538.415 608.82 536.748 601.15 535 593.5C531.452 555.9 530.619 518.23 532.5 480.5C534.031 475.75 534.698 470.75 534.5 465.5C534.194 462.61 534.527 459.95 535.5 457.5C539.753 445.7 542.42 433.37 543.5 420.5C543.92 415.47 545.254 410.8 547.5 406.5C550.695 401.74 552.361 396.41 552.5 390.5C553.129 387.6 554.129 384.94 555.5 382.5C557.619 381.01 559.119 379.01 560 376.5C560.533 373.07 561.367 369.74 562.5 366.5C586.759 311.73 623.093 266.56 671.5 231C681.176 225.5 690.51 219.5 699.5 213C706.832 210 713.832 206.5 720.5 202.5C726.736 200.25 733.069 198.09 739.5 196C742.599 194.72 745.266 192.89 747.5 190.5C752.827 189.4 758.16 188.23 763.5 187C765.063 186.24 766.063 185.07 766.5 183.5C776.549 181.65 786.549 179.48 796.5 177C797.056 176.62 797.389 176.12 797.5 175.5C800.551 174.37 803.551 173.37 806.5 172.5C811.689 173.09 816.355 172.09 820.5 169.5C824.458 169.75 828.124 169.08 831.5 167.5C842.22 167.34 852.553 166.01 862.5 163.5C870.854 163.57 879.188 163.24 887.5 162.5C887.657 161.13 887.49 159.79 887 158.5C882.919 152.67 879.086 146.67 875.5 140.5C875.785 138.71 875.452 137.05 874.5 135.5C873.302 133.1 871.636 131.1 869.5 129.5C868.18 126.56 866.847 123.56 865.5 120.5C865.043 119.7 864.376 119.37 863.5 119.5C863.167 119.5 862.833 119.5 862.5 119.5C860.957 114.98 858.623 110.98 855.5 107.5C854.37 105.69 853.704 103.69 853.5 101.5C895.833 101.5 938.167 101.5 980.5 101.5C979.957 104.04 978.957 106.37 977.5 108.5Z" fill="#FF4401"/>
<path fill-rule="evenodd" clip-rule="evenodd" d="M862.5 119.5C860.957 114.98 858.623 110.98 855.5 107.5C856.311 112.46 858.644 116.46 862.5 119.5Z" fill="#C5C5C5"/>
<path fill-rule="evenodd" clip-rule="evenodd" d="M976.5 110.5C975.921 113.33 974.588 115.66 972.5 117.5C973.079 114.67 974.412 112.34 976.5 110.5Z" fill="#8B8B8B"/>
<path fill-rule="evenodd" clip-rule="evenodd" d="M863.5 119.5C864.376 119.37 865.043 119.7 865.5 120.5C866.847 123.56 868.18 126.56 869.5 129.5C868.542 129.05 867.708 128.38 867 127.5C866.094 124.69 864.927 122.02 863.5 119.5Z" fill="#777777"/>
<path fill-rule="evenodd" clip-rule="evenodd" d="M972.5 117.5C971.785 122.2 969.785 126.2 966.5 129.5C967.436 124.96 969.436 120.96 972.5 117.5Z" fill="#B0B0B0"/>
<path fill-rule="evenodd" clip-rule="evenodd" d="M869.5 129.5C871.636 131.1 873.302 133.1 874.5 135.5C875.452 137.05 875.785 138.71 875.5 140.5C872.781 137.39 870.781 133.72 869.5 129.5Z" fill="#7A7A7A"/>
<path fill-rule="evenodd" clip-rule="evenodd" d="M964.5 131.5C964.408 133.85 963.408 135.51 961.5 136.5C961.75 134.33 962.75 132.66 964.5 131.5Z" fill="#ACACAC"/>
<path fill-rule="evenodd" clip-rule="evenodd" d="M948.5 160.5C952.232 162.13 956.232 163.13 960.5 163.5C956.167 163.5 951.833 163.5 947.5 163.5C947.263 162.21 947.596 161.21 948.5 160.5Z" fill="#ABABAB"/>
<path fill-rule="evenodd" clip-rule="evenodd" d="M960.5 163.5C969.729 163.68 978.729 164.68 987.5 166.5C978.23 166.68 969.23 165.68 960.5 163.5Z" fill="#898989"/>
<path fill-rule="evenodd" clip-rule="evenodd" d="M831.5 167.5C842.22 167.34 852.553 166.01 862.5 163.5C851.942 164.09 841.609 165.42 831.5 167.5Z" fill="#9F9F9F"/>
<path fill-rule="evenodd" clip-rule="evenodd" d="M820.5 169.5C824.458 169.75 828.124 169.08 831.5 167.5C827.613 167.65 823.946 168.31 820.5 169.5Z" fill="#A6A6A6"/>
<path fill-rule="evenodd" clip-rule="evenodd" d="M987.5 166.5C993.725 166.9 999.725 167.9 1005.5 169.5C999.159 169.78 993.159 168.78 987.5 166.5Z" fill="#8A8A8A"/>
<path fill-rule="evenodd" clip-rule="evenodd" d="M806.5 172.5C811.689 173.09 816.355 172.09 820.5 169.5C815.553 169.72 810.886 170.72 806.5 172.5Z" fill="#8A8A8A"/>
<path fill-rule="evenodd" clip-rule="evenodd" d="M1005.5 169.5C1010.77 169.74 1015.77 170.74 1020.5 172.5C1015.13 172.76 1010.13 171.76 1005.5 169.5Z" fill="#8D8D8D"/>
<path fill-rule="evenodd" clip-rule="evenodd" d="M1020.5 172.5C1024.84 172.58 1028.84 173.58 1032.5 175.5C1028.08 175.73 1024.08 174.73 1020.5 172.5Z" fill="#8B8B8B"/>
<path fill-rule="evenodd" clip-rule="evenodd" d="M806.5 172.5C803.551 173.37 800.551 174.37 797.5 175.5C794.904 176.27 792.237 176.6 789.5 176.5C794.878 174.38 800.545 173.05 806.5 172.5Z" fill="#A6A6A6"/>
<path fill-rule="evenodd" clip-rule="evenodd" d="M797.5 175.5C797.389 176.12 797.056 176.62 796.5 177C786.549 179.48 776.549 181.65 766.5 183.5C774.183 181.16 781.85 178.83 789.5 176.5C792.237 176.6 794.904 176.27 797.5 175.5Z" fill="#6B6B6B"/>
<path fill-rule="evenodd" clip-rule="evenodd" d="M1032.5 175.5C1036.16 175.15 1039.16 176.15 1041.5 178.5C1038.15 178.29 1035.15 177.29 1032.5 175.5Z" fill="#818181"/>
<path fill-rule="evenodd" clip-rule="evenodd" d="M1047.5 179.5C1051.08 179.98 1054.42 180.98 1057.5 182.5C1055.14 182.66 1052.81 182.5 1050.5 182C1048.88 181.76 1047.88 180.93 1047.5 179.5Z" fill="#7C7C7C"/>
<path fill-rule="evenodd" clip-rule="evenodd" d="M766.5 183.5C766.063 185.07 765.063 186.24 763.5 187C758.16 188.23 752.827 189.4 747.5 190.5C753.634 187.85 759.967 185.52 766.5 183.5Z" fill="#717171"/>
<path fill-rule="evenodd" clip-rule="evenodd" d="M1077.5 190.5C1082.05 191.12 1086.39 192.45 1090.5 194.5C1092.79 195.58 1094.79 196.91 1096.5 198.5C1089.9 196.28 1083.57 193.61 1077.5 190.5Z" fill="#6B6B6B"/>
<path fill-rule="evenodd" clip-rule="evenodd" d="M747.5 190.5C745.266 192.89 742.599 194.72 739.5 196C733.069 198.09 726.736 200.25 720.5 202.5C728.923 197.35 737.923 193.35 747.5 190.5Z" fill="#757575"/>
<path fill-rule="evenodd" clip-rule="evenodd" d="M870.5 217.5C868.052 216.53 865.385 216.19 862.5 216.5C866.182 215.74 870.015 215.07 874 214.5C875.826 215.01 875.993 215.84 874.5 217C873.207 217.49 871.873 217.66 870.5 217.5Z" fill="#9D9D9D"/>
<path fill-rule="evenodd" clip-rule="evenodd" d="M862.5 216.5C865.385 216.19 868.052 216.53 870.5 217.5C864.089 220.36 857.422 222.7 850.5 224.5C848.62 224.23 847.287 224.9 846.5 226.5C844.708 227.31 842.708 227.81 840.5 228C831.962 232.63 823.295 236.96 814.5 241C805.434 245.92 797.1 251.75 789.5 258.5C787.745 259.07 786.078 259.91 784.5 261C778.833 266 773.167 271 767.5 276C761.902 281.09 756.902 286.59 752.5 292.5C749.097 294.9 746.43 297.9 744.5 301.5C741.444 303.95 739.111 306.95 737.5 310.5C735.016 312.8 733.016 315.47 731.5 318.5C729.178 319.8 727.845 321.8 727.5 324.5C726.974 326.23 725.974 327.56 724.5 328.5C721.779 331.89 719.446 335.56 717.5 339.5C715.132 344.19 712.799 348.85 710.5 353.5C707.346 355.12 705.679 357.79 705.5 361.5C705.5 362.17 705.5 362.83 705.5 363.5C701.839 367.82 699.506 372.82 698.5 378.5C697.177 381.46 695.843 384.46 694.5 387.5C693.711 387.78 693.044 388.28 692.5 389C681 389.17 669.5 389.33 658 389.5C646.147 389.5 634.647 388.83 623.5 387.5C623.94 384.62 624.94 381.95 626.5 379.5C661.231 307.42 716.231 258.42 791.5 232.5C795.077 232.86 798.077 231.86 800.5 229.5C805.629 228.3 810.629 226.97 815.5 225.5C818.152 225.59 820.485 224.92 822.5 223.5C827.151 223.37 831.485 222.37 835.5 220.5C838.059 220.8 840.393 220.47 842.5 219.5C845.85 219.67 849.183 219.5 852.5 219C853.056 218.62 853.389 218.12 853.5 217.5C856.713 217.81 859.713 217.48 862.5 216.5Z" fill="#FCFCFC"/>
<path fill-rule="evenodd" clip-rule="evenodd" d="M862.5 216.5C859.713 217.48 856.713 217.81 853.5 217.5C849.613 217.65 845.946 218.31 842.5 219.5C840.393 220.47 838.059 220.8 835.5 220.5C843.973 217.05 852.973 215.72 862.5 216.5Z" fill="#757575"/>
<path fill-rule="evenodd" clip-rule="evenodd" d="M853.5 217.5C853.389 218.12 853.056 218.62 852.5 219C849.183 219.5 845.85 219.67 842.5 219.5C845.946 218.31 849.613 217.65 853.5 217.5Z" fill="#C1C1C1"/>
<path fill-rule="evenodd" clip-rule="evenodd" d="M835.5 220.5C831.485 222.37 827.151 223.37 822.5 223.5C821.5 223.5 820.5 223.5 819.5 223.5C821.026 221.87 823.026 221.04 825.5 221C828.817 220.5 832.15 220.33 835.5 220.5Z" fill="#6D6D6D"/>
<path fill-rule="evenodd" clip-rule="evenodd" d="M1599.5 229.5C1601.94 230.87 1604.6 231.87 1607.5 232.5C1614.83 235.5 1622.16 238.5 1629.5 241.5C1636.33 246.01 1643.67 247.34 1651.5 245.5C1653.22 245.37 1654.88 245.04 1656.5 244.5C1662.49 243.24 1668.49 243.24 1674.5 244.5C1685.4 249.56 1693.56 257.56 1699 268.5C1702.06 273.95 1704.56 279.62 1706.5 285.5C1706.41 288.15 1707.08 290.49 1708.5 292.5C1708.41 295.15 1709.08 297.49 1710.5 299.5C1710.5 299.83 1710.5 300.17 1710.5 300.5C1712.08 311.76 1712.75 323.1 1712.5 334.5C1712.48 336.56 1712.15 338.56 1711.5 340.5C1710.05 343.25 1709.05 346.25 1708.5 349.5C1700.76 367.64 1686.92 376.97 1667 377.5C1655.19 378.26 1645.86 373.93 1639 364.5C1631.33 351.83 1623.67 339.17 1616 326.5C1595.69 302.93 1569.85 291.77 1538.5 293C1517.55 297.12 1503.55 309.28 1496.5 329.5C1494.93 331.1 1494.26 333.1 1494.5 335.5C1493.49 338.32 1492.66 341.32 1492 344.5C1491.18 353.68 1491.34 362.68 1492.5 371.5C1492.24 375.27 1492.58 378.94 1493.5 382.5C1493.34 385.19 1493.5 387.85 1494 390.5C1494.28 391.42 1494.78 392.08 1495.5 392.5C1495.45 394.9 1495.78 397.24 1496.5 399.5C1497.34 405.7 1499.34 411.37 1502.5 416.5C1524.79 471.82 1565.45 493.98 1624.5 483C1635.22 479.98 1645.55 475.98 1655.5 471C1663.17 465.33 1670.83 459.67 1678.5 454C1689.74 452.41 1697.41 456.91 1701.5 467.5C1702.37 475.8 1702.7 484.13 1702.5 492.5C1697.71 511.24 1688.38 527.41 1674.5 541C1666.31 545.17 1657.64 547.84 1648.5 549C1635.39 554.06 1622.39 559.39 1609.5 565C1543.77 584.71 1483.77 573.71 1429.5 532C1402.55 507.61 1383.55 478.11 1372.5 443.5C1371.25 437.39 1369.92 431.39 1368.5 425.5C1368.08 421.09 1367.41 416.76 1366.5 412.5C1366.19 398.11 1366.86 383.78 1368.5 369.5C1368.5 369.17 1368.5 368.83 1368.5 368.5C1369.92 366.49 1370.59 364.15 1370.5 361.5C1370.5 361.17 1370.5 360.83 1370.5 360.5C1371.92 358.49 1372.59 356.15 1372.5 353.5C1374.31 350.86 1375.31 347.86 1375.5 344.5C1395.4 294.1 1430.4 258.27 1480.5 237C1519.36 221.09 1559.03 218.59 1599.5 229.5Z" fill="#4C4C4C"/>
<path fill-rule="evenodd" clip-rule="evenodd" d="M818.5 223.5C817.5 224.17 816.5 224.83 815.5 225.5C810.629 226.97 805.629 228.3 800.5 229.5C805.941 226.12 811.941 224.12 818.5 223.5Z" fill="#6E6E6E"/>
<path fill-rule="evenodd" clip-rule="evenodd" d="M818.5 223.5C818.833 223.5 819.167 223.5 819.5 223.5C820.5 223.5 821.5 223.5 822.5 223.5C820.485 224.92 818.152 225.59 815.5 225.5C816.5 224.83 817.5 224.17 818.5 223.5Z" fill="#B4B4B4"/>
<path fill-rule="evenodd" clip-rule="evenodd" d="M850.5 224.5C849.486 225.67 848.153 226.34 846.5 226.5C847.287 224.9 848.62 224.23 850.5 224.5Z" fill="#A0A0A0"/>
<path fill-rule="evenodd" clip-rule="evenodd" d="M2397.5 227.5C2383.43 227.1 2369.43 227.77 2355.5 229.5C2358.01 227.76 2361.01 226.93 2364.5 227C2375.67 226.17 2386.67 226.34 2397.5 227.5Z" fill="#BEBEBE"/>
<path fill-rule="evenodd" clip-rule="evenodd" d="M2397.5 227.5C2417.51 229 2436.18 234.84 2453.5 245C2466.9 253.06 2475.73 264.56 2480 279.5C2483.31 303.07 2473.81 318.57 2451.5 326C2435.47 328.08 2421.14 324.08 2408.5 314C2400.86 305.36 2392.86 297.03 2384.5 289C2377.23 283.47 2369.23 282.14 2360.5 285C2353.81 290.25 2351.31 297.08 2353 305.5C2357.31 316.27 2364.14 325.11 2373.5 332C2382.83 338 2392.17 344 2401.5 350C2406.54 353.86 2410.2 358.69 2412.5 364.5C2413.06 365.79 2414.06 366.62 2415.5 367C2429.5 367.5 2443.5 367.67 2457.5 367.5C2459.66 368.73 2461.83 370.07 2464 371.5C2464.46 386.94 2463.46 402.28 2461 417.5C2459.83 418.89 2458.33 419.73 2456.5 420C2446.09 420.07 2435.76 420.74 2425.5 422C2421.36 425.09 2418.86 429.26 2418 434.5C2416.42 454.72 2417.75 474.72 2422 494.5C2423.26 500.85 2426.43 506.02 2431.5 510C2440.03 513.29 2448.37 516.95 2456.5 521C2465.43 529.95 2466.93 540.12 2461 551.5C2453.33 559.92 2443.83 565.09 2432.5 567C2425.17 568.33 2417.84 569.67 2410.5 571C2384.52 572.7 2358.52 573.37 2332.5 573C2314.46 572.52 2297.46 568.19 2281.5 560C2271.81 552.45 2268.31 542.62 2271 530.5C2272.46 528.04 2274.29 525.87 2276.5 524C2283.17 520.33 2289.83 516.67 2296.5 513C2303.11 505.07 2306.61 495.9 2307 485.5C2308.74 468.53 2309.41 451.53 2309 434.5C2307.43 427.26 2302.93 423.1 2295.5 422C2288.5 421.67 2281.5 421.33 2274.5 421C2271.75 420.4 2269.75 418.9 2268.5 416.5C2269.9 403.88 2270.56 391.21 2270.5 378.5C2271 375.84 2272.33 373.68 2274.5 372C2279.39 370.78 2284.39 370.11 2289.5 370C2293.37 366.34 2294.53 361.84 2293 356.5C2289.34 348.87 2285.67 341.2 2282 333.5C2267.49 284 2284.66 250.83 2333.5 234C2340.65 231.55 2347.98 230.05 2355.5 229.5C2369.43 227.77 2383.43 227.1 2397.5 227.5Z" fill="#4C4C4C"/>
<path fill-rule="evenodd" clip-rule="evenodd" d="M1599.5 229.5C1602.72 229.35 1605.38 230.35 1607.5 232.5C1604.6 231.87 1601.94 230.87 1599.5 229.5Z" fill="#BCBCBC"/>
<path fill-rule="evenodd" clip-rule="evenodd" d="M791.5 232.5C795.077 232.86 798.077 231.86 800.5 229.5C797.294 230.08 794.294 231.08 791.5 232.5Z" fill="#B4B4B4"/>
<path fill-rule="evenodd" clip-rule="evenodd" d="M1629.5 241.5C1633.55 242.35 1637.55 243.52 1641.5 245C1644.82 245.5 1648.15 245.67 1651.5 245.5C1643.67 247.34 1636.33 246.01 1629.5 241.5Z" fill="#BDBDBD"/>
<path fill-rule="evenodd" clip-rule="evenodd" d="M1674.5 244.5C1668.49 243.24 1662.49 243.24 1656.5 244.5C1659.02 243.03 1661.85 242.36 1665 242.5C1668.45 242.42 1671.62 243.09 1674.5 244.5Z" fill="#C6C6C6"/>
<path fill-rule="evenodd" clip-rule="evenodd" d="M2599.5 261.5C2609.51 261.33 2619.51 261.5 2629.5 262C2631.59 262.79 2633.42 263.96 2635 265.5C2636.29 282.1 2636.96 298.77 2637 315.5C2637.27 317.33 2638.11 318.83 2639.5 320C2660.41 321.31 2681.41 321.98 2702.5 322C2705 323.17 2706.83 325 2708 327.5C2708.67 339.5 2708.67 351.5 2708 363.5C2707.13 369.7 2703.63 373.2 2697.5 374C2678.83 374.33 2660.17 374.67 2641.5 375C2639.33 375.83 2637.83 377.33 2637 379.5C2636.33 412.83 2636.33 446.17 2637 479.5C2641.94 500.77 2654.78 507.94 2675.5 501C2680.66 498.59 2685.66 495.92 2690.5 493C2696.99 491.78 2702.16 493.95 2706 499.5C2712.75 512.48 2711.75 524.81 2703 536.5C2672.63 566.29 2636.13 578.79 2593.5 574C2552.1 568.26 2528.26 544.76 2522 503.5C2521.67 460.5 2521.33 417.5 2521 374.5C2520.53 373.07 2519.7 371.9 2518.5 371C2505.83 370.67 2493.17 370.33 2480.5 370C2477.9 368.28 2476.4 365.78 2476 362.5C2474.9 354.31 2475.56 346.31 2478 338.5C2518.17 312.17 2558.67 286.5 2599.5 261.5Z" fill="#4C4C4C"/>
<path fill-rule="evenodd" clip-rule="evenodd" d="M789.5 258.5C777.193 269.81 764.859 281.14 752.5 292.5C756.902 286.59 761.902 281.09 767.5 276C773.167 271 778.833 266 784.5 261C786.078 259.91 787.745 259.07 789.5 258.5Z" fill="#999999"/>
<path fill-rule="evenodd" clip-rule="evenodd" d="M1706.5 285.5C1707.92 287.51 1708.59 289.85 1708.5 292.5C1707.08 290.49 1706.41 288.15 1706.5 285.5Z" fill="#919191"/>
<path fill-rule="evenodd" clip-rule="evenodd" d="M1708.5 292.5C1709.92 294.51 1710.59 296.85 1710.5 299.5C1709.08 297.49 1708.41 295.15 1708.5 292.5Z" fill="#9A9A9A"/>
<path fill-rule="evenodd" clip-rule="evenodd" d="M752.5 292.5C750.57 296.1 747.903 299.1 744.5 301.5C746.43 297.9 749.097 294.9 752.5 292.5Z" fill="#A0A0A0"/>
<path fill-rule="evenodd" clip-rule="evenodd" d="M744.5 301.5C742.889 305.05 740.556 308.05 737.5 310.5C739.111 306.95 741.444 303.95 744.5 301.5Z" fill="#A2A2A2"/>
<path fill-rule="evenodd" clip-rule="evenodd" d="M737.5 310.5C736.471 313.89 734.471 316.56 731.5 318.5C733.016 315.47 735.016 312.8 737.5 310.5Z" fill="#989898"/>
<path fill-rule="evenodd" clip-rule="evenodd" d="M1233.5 313.5C1235.86 316.55 1237.86 319.88 1239.5 323.5C1236 321.19 1234 317.86 1233.5 313.5Z" fill="#767676"/>
<path fill-rule="evenodd" clip-rule="evenodd" d="M731.5 318.5C730.66 320.85 729.326 322.85 727.5 324.5C727.845 321.8 729.178 319.8 731.5 318.5Z" fill="#A2A2A2"/>
<path fill-rule="evenodd" clip-rule="evenodd" d="M2138.5 321.5C2128.47 321.27 2118.47 321.6 2108.5 322.5C2108.61 321.88 2108.94 321.38 2109.5 321C2119.34 320.18 2129.01 320.34 2138.5 321.5Z" fill="#C1C1C1"/>
<path fill-rule="evenodd" clip-rule="evenodd" d="M2138.5 321.5C2169.35 323.02 2195.52 334.68 2217 356.5C2224.06 364.86 2227.9 374.52 2228.5 385.5C2229.03 417.84 2229.86 450.18 2231 482.5C2231.23 483.74 2231.73 484.74 2232.5 485.5C2233.7 490.93 2235.53 496.26 2238 501.5C2239.54 503.38 2241.38 504.88 2243.5 506C2247.54 506.87 2251.54 507.87 2255.5 509C2257.14 510.13 2258.14 511.63 2258.5 513.5C2258.63 517.88 2258.29 522.21 2257.5 526.5C2252.8 539.71 2244.8 550.54 2233.5 559C2212.11 574.45 2188.77 578.45 2163.5 571C2154.96 566.45 2147.62 560.45 2141.5 553C2137.7 550.17 2133.7 549.84 2129.5 552C2097.81 576.08 2063.15 581.41 2025.5 568C1994.17 551.51 1981.34 525.67 1987 490.5C1992.24 475.24 2001.41 462.74 2014.5 453C2031.7 441.15 2050.7 433.82 2071.5 431C2085.81 429.96 2100.15 429.29 2114.5 429C2116.83 428 2119.17 427 2121.5 426C2122.25 425.33 2122.59 424.5 2122.5 423.5C2123.22 423.08 2123.72 422.42 2124 421.5C2124.83 410.99 2124.66 400.66 2123.5 390.5C2122.87 370.69 2112.87 361.85 2093.5 364C2087.74 367.75 2082.58 372.25 2078 377.5C2069.86 390.3 2059.7 401.13 2047.5 410C2036.12 416.41 2024.46 417.08 2012.5 412C2002.6 404.63 1998.76 394.8 2001 382.5C2005.54 368.59 2014.04 357.75 2026.5 350C2051.82 334.95 2079.15 325.78 2108.5 322.5C2118.47 321.6 2128.47 321.27 2138.5 321.5Z" fill="#4C4C4C"/>
<path fill-rule="evenodd" clip-rule="evenodd" d="M1919.5 323.5C1925.32 322.35 1931.32 322.18 1937.5 323C1941.13 323.15 1944.47 323.98 1947.5 325.5C1938.24 323.94 1928.91 323.27 1919.5 323.5Z" fill="#C4C4C4"/>
<path fill-rule="evenodd" clip-rule="evenodd" d="M1856.5 327.5C1857.75 333.61 1859.08 339.61 1860.5 345.5C1860.23 351.62 1862.23 356.79 1866.5 361C1868.17 361.67 1869.83 361.67 1871.5 361C1878.74 352.09 1886.4 343.42 1894.5 335C1902.18 329.51 1910.51 325.67 1919.5 323.5C1928.91 323.27 1938.24 323.94 1947.5 325.5C1965.71 332.86 1977.21 346.2 1982 365.5C1985.31 390.69 1977.15 411.19 1957.5 427C1939.68 438.79 1921.01 440.45 1901.5 432C1892.58 425.75 1884.25 418.75 1876.5 411C1870.18 407.98 1865.51 409.48 1862.5 415.5C1861.78 415.92 1861.28 416.58 1861 417.5C1860.5 420.15 1860.34 422.81 1860.5 425.5C1860.5 426.17 1860.5 426.83 1860.5 427.5C1859.34 447.33 1859.17 467.33 1860 487.5C1860.12 492.43 1860.95 497.1 1862.5 501.5C1863.65 505.95 1865.98 509.79 1869.5 513C1877.66 515.94 1885.66 519.28 1893.5 523C1896.72 524.72 1899.05 527.22 1900.5 530.5C1902.04 535.35 1902.71 540.35 1902.5 545.5C1899.67 556.62 1892.67 563.78 1881.5 567C1874.56 568.66 1867.56 569.99 1860.5 571C1834.2 573.21 1807.87 573.88 1781.5 573C1768.68 571.87 1756.01 569.87 1743.5 567C1731.09 564.75 1723.42 557.58 1720.5 545.5C1720.22 540.67 1720.89 536.01 1722.5 531.5C1724.2 527.95 1726.54 524.78 1729.5 522C1736.99 518.34 1742.66 512.84 1746.5 505.5C1747.78 503.44 1748.61 501.1 1749 498.5C1752.25 467.24 1753.25 435.91 1752 404.5C1751.63 402.51 1750.79 400.84 1749.5 399.5C1748.37 397.87 1747.04 396.37 1745.5 395C1735.09 392.23 1727.59 386.07 1723 376.5C1721.46 366.13 1724.96 357.97 1733.5 352C1749.14 343 1765.81 336.34 1783.5 332C1801.46 326.67 1819.79 323.51 1838.5 322.5C1842.57 322.5 1846.57 323 1850.5 324C1853.03 324.42 1855.03 325.59 1856.5 327.5Z" fill="#4C4C4C"/>
<path fill-rule="evenodd" clip-rule="evenodd" d="M1710.5 300.5C1711.83 304.26 1712.67 308.26 1713 312.5C1713.82 320.01 1713.66 327.35 1712.5 334.5C1712.75 323.1 1712.08 311.76 1710.5 300.5Z" fill="#A9A9A9"/>
<path fill-rule="evenodd" clip-rule="evenodd" d="M1856.5 327.5C1859.47 333.01 1860.8 339.01 1860.5 345.5C1859.08 339.61 1857.75 333.61 1856.5 327.5Z" fill="#878787"/>
<path fill-rule="evenodd" clip-rule="evenodd" d="M1496.5 329.5C1496.74 331.9 1496.07 333.9 1494.5 335.5C1494.26 333.1 1494.93 331.1 1496.5 329.5Z" fill="#9E9E9E"/>
<path fill-rule="evenodd" clip-rule="evenodd" d="M724.5 328.5C724.657 329.87 724.49 331.21 724 332.5C721.657 334.74 719.49 337.07 717.5 339.5C719.446 335.56 721.779 331.89 724.5 328.5Z" fill="#A1A1A1"/>
<path fill-rule="evenodd" clip-rule="evenodd" d="M1711.5 340.5C1711.55 343.99 1710.55 346.99 1708.5 349.5C1709.05 346.25 1710.05 343.25 1711.5 340.5Z" fill="#969696"/>
<path fill-rule="evenodd" clip-rule="evenodd" d="M1372.5 353.5C1374.31 350.86 1375.31 347.86 1375.5 344.5C1373.53 347.08 1372.53 350.08 1372.5 353.5Z" fill="#9E9E9E"/>
<path fill-rule="evenodd" clip-rule="evenodd" d="M1252.5 348.5C1254.74 351.88 1256.41 355.55 1257.5 359.5C1254.46 356.46 1252.8 352.79 1252.5 348.5Z" fill="#828282"/>
<path fill-rule="evenodd" clip-rule="evenodd" d="M1370.5 360.5C1371.92 358.49 1372.59 356.15 1372.5 353.5C1371.08 355.51 1370.41 357.85 1370.5 360.5Z" fill="#A6A6A6"/>
<path fill-rule="evenodd" clip-rule="evenodd" d="M710.5 353.5C709.221 356.44 707.555 359.1 705.5 361.5C705.679 357.79 707.346 355.12 710.5 353.5Z" fill="#B2B2B2"/>
<path fill-rule="evenodd" clip-rule="evenodd" d="M1494.5 335.5C1492.88 347.43 1492.21 359.43 1492.5 371.5C1491.34 362.68 1491.18 353.68 1492 344.5C1492.66 341.32 1493.49 338.32 1494.5 335.5Z" fill="#A9A9A9"/>
<path fill-rule="evenodd" clip-rule="evenodd" d="M1257.5 360.5C1259.93 364.1 1261.59 368.1 1262.5 372.5C1259.04 369.46 1257.38 365.46 1257.5 360.5Z" fill="#7A7A7A"/>
<path fill-rule="evenodd" clip-rule="evenodd" d="M2412.5 364.5C2413.92 364.71 2415.26 365.21 2416.5 366C2430.34 366.17 2444.01 366.67 2457.5 367.5C2443.5 367.67 2429.5 367.5 2415.5 367C2414.06 366.62 2413.06 365.79 2412.5 364.5Z" fill="#DCDCDC"/>
<path fill-rule="evenodd" clip-rule="evenodd" d="M1368.5 368.5C1369.92 366.49 1370.59 364.15 1370.5 361.5C1369.08 363.51 1368.41 365.85 1368.5 368.5Z" fill="#BABABA"/>
<path fill-rule="evenodd" clip-rule="evenodd" d="M705.5 363.5C703.95 368.93 701.616 373.93 698.5 378.5C699.506 372.82 701.839 367.82 705.5 363.5Z" fill="#808080"/>
<path fill-rule="evenodd" clip-rule="evenodd" d="M562.5 366.5C561.367 369.74 560.533 373.07 560 376.5C559.119 379.01 557.619 381.01 555.5 382.5C557.027 376.69 559.361 371.36 562.5 366.5Z" fill="#757575"/>
<path fill-rule="evenodd" clip-rule="evenodd" d="M1262.5 372.5C1263.92 374.51 1264.59 376.85 1264.5 379.5C1263.08 377.49 1262.41 375.15 1262.5 372.5Z" fill="#949494"/>
<path fill-rule="evenodd" clip-rule="evenodd" d="M1264.5 379.5C1266.47 382.08 1267.47 385.08 1267.5 388.5C1265.69 385.86 1264.69 382.86 1264.5 379.5Z" fill="#949494"/>
<path fill-rule="evenodd" clip-rule="evenodd" d="M623.5 387.5C634.647 388.83 646.147 389.5 658 389.5C669.5 389.33 681 389.17 692.5 389C693.044 388.28 693.711 387.78 694.5 387.5C694.573 389.03 693.906 390.03 692.5 390.5C669.167 390.5 645.833 390.5 622.5 390.5C622.263 389.21 622.596 388.21 623.5 387.5Z" fill="#DCDCDC"/>
<path fill-rule="evenodd" clip-rule="evenodd" d="M1493.5 382.5C1494.58 385.63 1495.25 388.96 1495.5 392.5C1494.78 392.08 1494.28 391.42 1494 390.5C1493.5 387.85 1493.34 385.19 1493.5 382.5Z" fill="#9D9D9D"/>
<path fill-rule="evenodd" clip-rule="evenodd" d="M626.5 379.5C624.94 381.95 623.94 384.62 623.5 387.5C622.596 388.21 622.263 389.21 622.5 390.5C645.833 390.5 669.167 390.5 692.5 390.5C685.197 391.83 677.53 392.5 669.5 392.5C653.167 392.09 636.833 391.76 620.5 391.5C621.022 388.43 621.855 385.43 623 382.5C623.759 380.94 624.926 379.94 626.5 379.5Z" fill="#767676"/>
<path fill-rule="evenodd" clip-rule="evenodd" d="M547.5 406.5C550.695 401.74 552.361 396.41 552.5 390.5C550.309 395.58 548.642 400.91 547.5 406.5Z" fill="#787878"/>
<path fill-rule="evenodd" clip-rule="evenodd" d="M1267.5 388.5C1269.75 393.5 1271.08 398.83 1271.5 404.5C1269.05 399.55 1267.71 394.22 1267.5 388.5Z" fill="#8B8B8B"/>
<path fill-rule="evenodd" clip-rule="evenodd" d="M1368.5 369.5C1366.86 383.78 1366.19 398.11 1366.5 412.5C1365.34 403.01 1365.18 393.34 1366 383.5C1366.52 378.64 1367.36 373.97 1368.5 369.5Z" fill="#BDBDBD"/>
<path fill-rule="evenodd" clip-rule="evenodd" d="M1496.5 399.5C1498.87 404.94 1500.87 410.61 1502.5 416.5C1499.34 411.37 1497.34 405.7 1496.5 399.5Z" fill="#909090"/>
<path fill-rule="evenodd" clip-rule="evenodd" d="M2123.5 390.5C2124.66 400.66 2124.83 410.99 2124 421.5C2123.72 422.42 2123.22 423.08 2122.5 423.5C2123.41 412.53 2123.74 401.53 2123.5 390.5Z" fill="#D9D9D9"/>
<path fill-rule="evenodd" clip-rule="evenodd" d="M1271.5 404.5C1273.04 406.84 1273.71 409.5 1273.5 412.5C1271.96 410.16 1271.29 407.5 1271.5 404.5Z" fill="#919191"/>
<path fill-rule="evenodd" clip-rule="evenodd" d="M2270.5 378.5C2270.56 391.21 2269.9 403.88 2268.5 416.5C2267.84 414.87 2267.51 413.03 2267.5 411C2268.48 400.01 2269.48 389.18 2270.5 378.5Z" fill="#DDDDDD"/>
<path fill-rule="evenodd" clip-rule="evenodd" d="M1862.5 415.5C1862.25 419.04 1861.58 422.37 1860.5 425.5C1860.34 422.81 1860.5 420.15 1861 417.5C1861.28 416.58 1861.78 415.92 1862.5 415.5Z" fill="#8E8E8E"/>
<path fill-rule="evenodd" clip-rule="evenodd" d="M1276.5 429.5C1277.45 430.92 1277.78 432.59 1277.5 434.5C1277.5 435.5 1277.5 436.5 1277.5 437.5C1248.33 437.83 1219.33 437.5 1190.5 436.5C1219.17 436.5 1247.83 436.5 1276.5 436.5C1276.5 434.17 1276.5 431.83 1276.5 429.5Z" fill="#636363"/>
<path fill-rule="evenodd" clip-rule="evenodd" d="M535.5 457.5C539.753 445.7 542.42 433.37 543.5 420.5C539.453 432.41 536.786 444.75 535.5 457.5Z" fill="#717171"/>
<path fill-rule="evenodd" clip-rule="evenodd" d="M606.5 438.5C614.65 437.51 622.983 437.17 631.5 437.5C817.667 437.17 1003.67 437.5 1189.5 438.5C995.084 438.53 800.751 438.53 606.5 438.5Z" fill="#D9D9D9"/>
<path fill-rule="evenodd" clip-rule="evenodd" d="M1277.5 434.5C1278.43 435.57 1278.77 436.9 1278.5 438.5C1248.83 438.5 1219.17 438.5 1189.5 438.5C1003.67 437.5 817.667 437.17 631.5 437.5C817.666 436.5 1004 436.17 1190.5 436.5C1219.33 437.5 1248.33 437.83 1277.5 437.5C1277.5 436.5 1277.5 435.5 1277.5 434.5Z" fill="#A3A3A3"/>
<path fill-rule="evenodd" clip-rule="evenodd" d="M1372.5 443.5C1371.25 437.39 1369.92 431.39 1368.5 425.5C1368.2 431.99 1369.53 437.99 1372.5 443.5Z" fill="#BCBCBC"/>
<path fill-rule="evenodd" clip-rule="evenodd" d="M2228.5 385.5C2229.31 387.63 2229.81 389.96 2230 392.5C2230.02 423.53 2230.85 454.53 2232.5 485.5C2231.73 484.74 2231.23 483.74 2231 482.5C2229.86 450.18 2229.03 417.84 2228.5 385.5Z" fill="#6A6A6A"/>
<path fill-rule="evenodd" clip-rule="evenodd" d="M2124.5 472.5C2124.78 480.84 2125.12 489.17 2125.5 497.5C2125.55 508.25 2120.88 516.08 2111.5 521C2098.98 522.83 2090.81 517.66 2087 505.5C2082.58 486.6 2089.08 473.1 2106.5 465C2112.27 463.78 2117.6 464.78 2122.5 468C2123.58 469.33 2124.25 470.83 2124.5 472.5Z" fill="#FBFBFB"/>
<path fill-rule="evenodd" clip-rule="evenodd" d="M1749.5 399.5C1750.79 400.84 1751.63 402.51 1752 404.5C1753.25 435.91 1752.25 467.24 1749 498.5C1748.61 501.1 1747.78 503.44 1746.5 505.5C1751.67 470.22 1752.67 434.89 1749.5 399.5Z" fill="#BEBEBE"/>
<path fill-rule="evenodd" clip-rule="evenodd" d="M532.5 480.5C534.031 475.75 534.698 470.75 534.5 465.5C533.275 470.29 532.608 475.29 532.5 480.5Z" fill="#818181"/>
<path fill-rule="evenodd" clip-rule="evenodd" d="M1701.5 467.5C1703.89 471.56 1704.89 476.06 1704.5 481C1704.65 485.11 1703.98 488.95 1702.5 492.5C1702.7 484.13 1702.37 475.8 1701.5 467.5Z" fill="#838383"/>
<path fill-rule="evenodd" clip-rule="evenodd" d="M2124.5 472.5C2126.04 477.06 2126.71 481.9 2126.5 487C2126.5 490.68 2126.17 494.18 2125.5 497.5C2125.12 489.17 2124.78 480.84 2124.5 472.5Z" fill="#CFCFCF"/>
<path fill-rule="evenodd" clip-rule="evenodd" d="M600.5 474.5C600.348 480.7 599.682 486.7 598.5 492.5C598.184 486.25 598.85 480.25 600.5 474.5Z" fill="#BBBBBB"/>
<path fill-rule="evenodd" clip-rule="evenodd" d="M1860.5 427.5C1860.08 452.21 1860.75 476.88 1862.5 501.5C1860.95 497.1 1860.12 492.43 1860 487.5C1859.17 467.33 1859.34 447.33 1860.5 427.5Z" fill="#7F7F7F"/>
<path fill-rule="evenodd" clip-rule="evenodd" d="M2258.5 513.5C2259.16 515.13 2259.49 516.97 2259.5 519C2259.7 521.87 2259.03 524.37 2257.5 526.5C2258.29 522.21 2258.63 517.88 2258.5 513.5Z" fill="#888888"/>
<path fill-rule="evenodd" clip-rule="evenodd" d="M597.5 503.5C596.344 517.33 596.344 530.99 597.5 544.5C597.5 548.5 597.5 552.5 597.5 556.5C596.168 548.03 595.502 539.19 595.5 530C595.502 520.81 596.168 511.97 597.5 503.5Z" fill="#626262"/>
<path fill-rule="evenodd" clip-rule="evenodd" d="M532.5 480.5C530.619 518.23 531.452 555.9 535 593.5C536.748 601.15 538.415 608.82 540 616.5C540.977 621.79 541.477 627.13 541.5 632.5C533.073 597.65 529.073 562.15 529.5 526C529.854 510.64 530.854 495.47 532.5 480.5Z" fill="#767676"/>
<path fill-rule="evenodd" clip-rule="evenodd" d="M598.5 492.5C597.952 509.83 597.618 527.16 597.5 544.5C596.344 530.99 596.344 517.33 597.5 503.5C597.185 499.63 597.518 495.96 598.5 492.5Z" fill="#B8B8B8"/>
<path fill-rule="evenodd" clip-rule="evenodd" d="M1722.5 531.5C1720.89 536.01 1720.22 540.67 1720.5 545.5C1719.36 542.02 1719.19 538.36 1720 534.5C1720.38 533.06 1721.21 532.06 1722.5 531.5Z" fill="#B3B3B3"/>
<path fill-rule="evenodd" clip-rule="evenodd" d="M1900.5 530.5C1901.79 531.84 1902.63 533.51 1903 535.5C1903.81 539.03 1903.64 542.36 1902.5 545.5C1902.71 540.35 1902.04 535.35 1900.5 530.5Z" fill="#9C9C9C"/>
<path fill-rule="evenodd" clip-rule="evenodd" d="M602.5 601.5C604.664 606.13 605.664 611.13 605.5 616.5C604.193 611.68 603.193 606.68 602.5 601.5Z" fill="#C6C6C6"/>
<path fill-rule="evenodd" clip-rule="evenodd" d="M1961.5 608.5C1951.48 608.41 1941.48 608.74 1931.5 609.5C1937.26 608 1943.26 607.33 1949.5 607.5C1953.68 607.5 1957.68 607.83 1961.5 608.5Z" fill="#919191"/>
<path fill-rule="evenodd" clip-rule="evenodd" d="M1961.5 608.5C1967.64 609.02 1973.64 610.18 1979.5 612C1986.79 615.16 1994.13 617.99 2001.5 620.5C2007.66 621.27 2013.99 621.27 2020.5 620.5C2029.96 624.37 2035.96 631.37 2038.5 641.5C2039.26 645.77 2040.59 649.77 2042.5 653.5C2044.18 663.26 2043.68 672.93 2041 682.5C2037.51 689.17 2032.34 693.83 2025.5 696.5C2020.54 697.25 2015.54 697.59 2010.5 697.5C2006.31 695.82 2002.81 693.15 2000 689.5C1994.78 677.95 1987.61 667.78 1978.5 659C1973.36 655.1 1967.7 652.27 1961.5 650.5C1957.27 648.97 1952.77 648.31 1948 648.5C1944.83 648.67 1941.67 648.83 1938.5 649C1936.51 649.37 1934.84 650.21 1933.5 651.5C1929.67 652.82 1926.5 655.15 1924 658.5C1917.39 667.55 1914.55 677.71 1915.5 689C1916.01 709.88 1922.85 728.38 1936 744.5C1944.29 753.39 1954.45 758.73 1966.5 760.5C1975.04 761.81 1983.7 761.64 1992.5 760C1993.06 759.62 1993.39 759.12 1993.5 758.5C1999.26 756.63 2004.93 754.47 2010.5 752C2014.65 748.42 2018.99 745.09 2023.5 742C2028.88 740.94 2033.04 742.77 2036 747.5C2039.18 755.1 2039.18 762.77 2036 770.5C2032.57 779.74 2027.07 787.41 2019.5 793.5C2016.6 794.13 2013.94 795.13 2011.5 796.5C2001.11 799.02 1991.11 802.69 1981.5 807.5C1978.85 807.41 1976.51 808.08 1974.5 809.5C1973.83 809.5 1973.17 809.5 1972.5 809.5C1968.96 809.75 1965.63 810.42 1962.5 811.5C1950.09 811.92 1937.76 811.25 1925.5 809.5C1925.17 809.5 1924.83 809.5 1924.5 809.5C1922.49 808.08 1920.15 807.41 1917.5 807.5C1877.56 794.56 1852.89 767.56 1843.5 726.5C1842.17 716.17 1842.17 705.83 1843.5 695.5C1849.29 664.52 1865.63 640.69 1892.5 624C1904.7 616.88 1917.7 612.05 1931.5 609.5C1941.48 608.74 1951.48 608.41 1961.5 608.5Z" fill="#4D4D4D"/>
<path fill-rule="evenodd" clip-rule="evenodd" d="M1583.5 610.5C1567.48 610.3 1551.48 610.63 1535.5 611.5C1544.21 609.14 1553.21 608.14 1562.5 608.5C1569.73 608.33 1576.73 609 1583.5 610.5Z" fill="#797979"/>
<path fill-rule="evenodd" clip-rule="evenodd" d="M1465.5 644.5C1462.99 646.48 1461.49 649.15 1461 652.5C1460.42 672 1459.92 691.5 1459.5 711C1459.5 718.67 1459.83 726.17 1460.5 733.5C1462.28 751.05 1471.61 762.38 1488.5 767.5C1490.02 768.41 1491.69 769.24 1493.5 770C1500.35 770.82 1507.01 770.65 1513.5 769.5C1522.06 767.13 1529.56 762.8 1536 756.5C1537.77 753.97 1539.27 751.3 1540.5 748.5C1542.21 747.36 1542.88 745.7 1542.5 743.5C1543.09 742.23 1543.59 740.9 1544 739.5C1544.5 716.5 1544.67 693.5 1544.5 670.5C1544.67 664.82 1544.5 659.16 1544 653.5C1543.9 650.48 1543.07 647.81 1541.5 645.5C1540.43 643.26 1538.77 641.43 1536.5 640C1530.41 637.96 1525.41 634.46 1521.5 629.5C1519.57 624.28 1520.57 619.78 1524.5 616C1527.73 613.38 1531.4 611.88 1535.5 611.5C1551.48 610.63 1567.48 610.3 1583.5 610.5C1592.07 610.23 1599.07 613.23 1604.5 619.5C1604.96 622.48 1605.3 625.48 1605.5 628.5C1602.27 633.21 1597.94 636.71 1592.5 639C1589.88 641.11 1587.88 643.61 1586.5 646.5C1585.69 648.63 1585.19 650.96 1585 653.5C1584.5 680.5 1584.33 707.5 1584.5 734.5C1584.5 735.17 1584.5 735.83 1584.5 736.5C1583.37 744.34 1582.37 752.34 1581.5 760.5C1576.48 775.69 1567.15 787.52 1553.5 796C1544.74 800.74 1535.74 804.58 1526.5 807.5C1523.85 807.41 1521.51 808.08 1519.5 809.5C1518.83 809.5 1518.17 809.5 1517.5 809.5C1511.9 809.78 1506.56 810.78 1501.5 812.5C1484.64 813.3 1467.97 811.97 1451.5 808.5C1449.49 807.08 1447.15 806.41 1444.5 806.5C1421.07 799.9 1404.24 785.57 1394 763.5C1392.64 754.75 1391.47 746.08 1390.5 737.5C1390.86 710.16 1391.02 682.83 1391 655.5C1390.8 653.62 1390.3 651.95 1389.5 650.5C1388.43 647.92 1386.77 645.76 1384.5 644C1379.65 641.65 1375.98 638.15 1373.5 633.5C1371.97 628.49 1372.64 623.83 1375.5 619.5C1377.72 616.38 1380.72 614.21 1384.5 613C1390.36 611.21 1396.36 610.21 1402.5 610C1424.96 608.71 1447.29 609.71 1469.5 613C1482.73 618.39 1485.06 626.72 1476.5 638C1472.44 639.69 1468.77 641.86 1465.5 644.5Z" fill="#4C4C4C"/>
<path fill-rule="evenodd" clip-rule="evenodd" d="M1279.5 615.5C1149.17 615.33 1018.83 615.5 888.5 616C887.877 618.61 887.21 621.11 886.5 623.5C886.223 620.55 886.556 617.72 887.5 615C1018.33 614.17 1149 614.33 1279.5 615.5Z" fill="#D7D7D7"/>
<path fill-rule="evenodd" clip-rule="evenodd" d="M1279.5 615.5C1279.78 617.41 1279.45 619.08 1278.5 620.5C1278.5 619.17 1278.5 617.83 1278.5 616.5C1148.83 617.17 1019.17 617.67 889.5 618C888.392 625.72 886.725 633.22 884.5 640.5C885.493 634.87 886.16 629.21 886.5 623.5C887.21 621.11 887.877 618.61 888.5 616C1018.83 615.5 1149.17 615.33 1279.5 615.5Z" fill="#767676"/>
<path fill-rule="evenodd" clip-rule="evenodd" d="M2001.5 620.5C2007.66 621.27 2013.99 621.27 2020.5 620.5C2014.33 619.62 2008 619.62 2001.5 620.5Z" fill="#868686"/>
<path fill-rule="evenodd" clip-rule="evenodd" d="M1604.5 619.5C1606.48 622.37 1606.81 625.37 1605.5 628.5C1605.3 625.48 1604.96 622.48 1604.5 619.5Z" fill="#9A9A9A"/>
<path fill-rule="evenodd" clip-rule="evenodd" d="M1375.5 619.5C1372.64 623.83 1371.97 628.49 1373.5 633.5C1372.78 633.08 1372.28 632.42 1372 631.5C1370.59 626.6 1371.76 622.6 1375.5 619.5Z" fill="#979797"/>
<path fill-rule="evenodd" clip-rule="evenodd" d="M543.5 639.5C543.279 636.93 542.612 634.6 541.5 632.5C541.171 635.23 541.837 637.56 543.5 639.5Z" fill="#8A8A8A"/>
<path fill-rule="evenodd" clip-rule="evenodd" d="M2038.5 641.5C2040.81 645.08 2042.14 649.08 2042.5 653.5C2040.59 649.77 2039.26 645.77 2038.5 641.5Z" fill="#7B7B7B"/>
<path fill-rule="evenodd" clip-rule="evenodd" d="M1273.5 647.5C1273.07 652.08 1272.07 656.41 1270.5 660.5C1270.51 655.83 1271.51 651.5 1273.5 647.5Z" fill="#9A9A9A"/>
<path fill-rule="evenodd" clip-rule="evenodd" d="M1961.5 650.5C1952.05 648.88 1942.72 649.21 1933.5 651.5C1934.84 650.21 1936.51 649.37 1938.5 649C1941.67 648.83 1944.83 648.67 1948 648.5C1952.77 648.31 1957.27 648.97 1961.5 650.5Z" fill="#CFCFCF"/>
<path fill-rule="evenodd" clip-rule="evenodd" d="M884.5 640.5C884.289 645.6 882.955 650.27 880.5 654.5C881.43 650.2 882.263 645.87 883 641.5C883.383 640.94 883.883 640.61 884.5 640.5Z" fill="#969696"/>
<path fill-rule="evenodd" clip-rule="evenodd" d="M1541.5 645.5C1543.07 647.81 1543.9 650.48 1544 653.5C1544.5 659.16 1544.67 664.82 1544.5 670.5C1543.72 662.28 1542.72 653.95 1541.5 645.5Z" fill="#949494"/>
<path fill-rule="evenodd" clip-rule="evenodd" d="M2350.5 771.5C2352.44 773.16 2354.77 773.83 2357.5 773.5C2359.96 774.87 2360.96 777.04 2360.5 780C2359.15 789.03 2354.82 796.37 2347.5 802C2343.55 804.83 2339.55 807.33 2335.5 809.5C2326.92 811.14 2318.26 811.81 2309.5 811.5C2306.59 810.18 2303.59 809.02 2300.5 808C2297.16 803.81 2293.16 800.64 2288.5 798.5C2283.09 801.04 2277.76 803.87 2272.5 807C2267.89 808.81 2263.22 810.31 2258.5 811.5C2246.51 812.48 2234.85 811.14 2223.5 807.5C2205.91 797.63 2199.07 782.63 2203 762.5C2207.99 749.68 2216.82 740.68 2229.5 735.5C2233.53 734.98 2237.2 733.64 2240.5 731.5C2243.15 731.59 2245.49 730.92 2247.5 729.5C2258.41 728.12 2269.41 727.12 2280.5 726.5C2280.81 725.69 2281.31 725.03 2282 724.5C2282.67 717.5 2282.67 710.5 2282 703.5C2280.35 691.49 2273.85 687.32 2262.5 691C2255.4 699.19 2248.07 707.19 2240.5 715C2237.11 716.62 2233.77 718.12 2230.5 719.5C2226.01 719.73 2221.67 719.06 2217.5 717.5C2210.85 711.9 2209.01 704.9 2212 696.5C2219.92 684.59 2230.76 676.42 2244.5 672C2249.17 670.77 2253.83 669.6 2258.5 668.5C2261.15 668.59 2263.49 667.92 2265.5 666.5C2279.87 664.86 2294.2 665.36 2308.5 668C2323.89 672.06 2335.06 681.22 2342 695.5C2342.33 697.17 2342.67 698.83 2343 700.5C2344.23 718.47 2344.9 736.47 2345 754.5C2345.03 760.87 2346.86 766.54 2350.5 771.5Z" fill="#4D4D4D"/>
<path fill-rule="evenodd" clip-rule="evenodd" d="M2630.5 666.5C2619.47 666.26 2608.47 666.59 2597.5 667.5C2597.92 666.78 2598.58 666.28 2599.5 666C2610.01 665.17 2620.34 665.34 2630.5 666.5Z" fill="#747474"/>
<path fill-rule="evenodd" clip-rule="evenodd" d="M1663.5 666.5C1670.92 666.2 1678.25 666.54 1685.5 667.5C1686.6 671.91 1687.6 676.24 1688.5 680.5C1689.22 682.56 1689.88 684.72 1690.5 687C1692.17 687.67 1693.83 687.67 1695.5 687C1699.74 681.75 1704.41 676.75 1709.5 672C1711.08 670.91 1712.74 670.07 1714.5 669.5C1717.65 669.26 1720.65 668.43 1723.5 667C1726.82 666.5 1730.15 666.33 1733.5 666.5C1744.7 668.03 1752.36 674.03 1756.5 684.5C1758.22 691.35 1758.89 698.35 1758.5 705.5C1755.59 715.09 1749.93 722.76 1741.5 728.5C1733.44 731.23 1725.11 732.23 1716.5 731.5C1709.55 727.75 1703.22 722.91 1697.5 717C1695.5 716.33 1693.5 716.33 1691.5 717C1690.94 717.38 1690.61 717.88 1690.5 718.5C1689.03 719.35 1688.2 720.68 1688 722.5C1687.83 729 1687.67 735.5 1687.5 742C1687.3 751.39 1687.97 760.55 1689.5 769.5C1690.55 771.93 1691.88 774.26 1693.5 776.5C1696.52 778.4 1699.85 779.73 1703.5 780.5C1714.1 784.82 1716.27 791.82 1710 801.5C1707 804.74 1703.5 807.07 1699.5 808.5C1694.9 808.28 1690.57 808.95 1686.5 810.5C1668.5 810.5 1650.5 810.5 1632.5 810.5C1630.62 809.66 1628.62 809.33 1626.5 809.5C1624.9 807.93 1622.9 807.26 1620.5 807.5C1608.65 804.46 1604.82 797.13 1609 785.5C1612.7 781.46 1616.7 777.8 1621 774.5C1621.51 773.47 1622.01 772.47 1622.5 771.5C1623.53 768.01 1624.37 764.35 1625 760.5C1625.67 744.17 1625.67 727.83 1625 711.5C1624.72 710.58 1624.22 709.92 1623.5 709.5C1619.45 706.72 1615.28 704.05 1611 701.5C1608.66 697.44 1607.99 693.11 1609 688.5C1613.98 682.6 1620.15 678.6 1627.5 676.5C1633.17 675.61 1638.5 673.94 1643.5 671.5C1645.59 670.06 1647.92 669.39 1650.5 669.5C1655.31 670.04 1659.65 669.04 1663.5 666.5Z" fill="#4C4C4C"/>
<path fill-rule="evenodd" clip-rule="evenodd" d="M2124.5 667.5C2125.97 668.35 2126.8 669.68 2127 671.5C2127.68 676.57 2128.68 681.57 2130 686.5C2131.73 687.58 2133.56 687.74 2135.5 687C2140.07 679.6 2146.07 673.77 2153.5 669.5C2161.02 667.74 2168.68 667.08 2176.5 667.5C2188.15 670.32 2195.32 677.65 2198 689.5C2200.64 704.92 2195.81 717.42 2183.5 727C2179.15 729.39 2174.48 730.89 2169.5 731.5C2164.46 731.59 2159.46 731.25 2154.5 730.5C2152.74 729.93 2151.08 729.09 2149.5 728C2145.2 724.7 2141.2 721.04 2137.5 717C2134.04 715.96 2131.2 716.8 2129 719.5C2127.41 733.44 2127.07 747.44 2128 761.5C2128.75 765.9 2129.75 770.23 2131 774.5C2131.71 775.38 2132.54 776.05 2133.5 776.5C2136.05 778.58 2139.05 779.92 2142.5 780.5C2152.51 784.21 2155.01 790.88 2150 800.5C2148.09 802.86 2145.92 804.86 2143.5 806.5C2139.75 807.61 2136.08 808.61 2132.5 809.5C2126.93 809.38 2121.6 810.04 2116.5 811.5C2103.8 811.78 2091.13 811.44 2078.5 810.5C2073.38 809.19 2068.05 808.53 2062.5 808.5C2060.9 806.93 2058.9 806.26 2056.5 806.5C2049.76 804.37 2046.42 799.7 2046.5 792.5C2047.63 785.19 2051.63 780.02 2058.5 777C2060.04 775.42 2061.21 773.59 2062 771.5C2064.38 751.57 2065.05 731.57 2064 711.5C2061.83 707.99 2058.66 705.82 2054.5 705C2045.17 697.33 2045.17 689.67 2054.5 682C2064.69 676.73 2075.36 672.9 2086.5 670.5C2096.28 668.84 2106.11 667.51 2116 666.5C2118.85 666.8 2121.68 667.13 2124.5 667.5Z" fill="#4D4D4D"/>
<path fill-rule="evenodd" clip-rule="evenodd" d="M2483.5 669.5C2498.43 667.72 2513.43 667.05 2528.5 667.5C2534 667.28 2538.5 669.28 2542 673.5C2544.62 678.95 2543.45 683.45 2538.5 687C2531.01 688.32 2524.85 691.82 2520 697.5C2503.16 728.52 2486.82 759.85 2471 791.5C2466.66 800.33 2460.49 807.33 2452.5 812.5C2448.8 812.45 2445.14 812.11 2441.5 811.5C2433.57 804.32 2427.07 795.99 2422 786.5C2407.25 758.01 2392.25 729.68 2377 701.5C2375.13 699.29 2372.96 697.46 2370.5 696C2363.77 695.22 2358.61 692.05 2355 686.5C2354.28 678.45 2357.78 672.95 2365.5 670C2368.43 669.05 2371.43 668.55 2374.5 668.5C2378.79 668.8 2382.79 668.14 2386.5 666.5C2406.94 664.74 2427.27 665.57 2447.5 669C2451.76 670.38 2455.26 672.88 2458 676.5C2458.67 678.83 2458.67 681.17 2458 683.5C2455.76 687.75 2452.76 691.41 2449 694.5C2447.63 696.7 2447.29 699.03 2448 701.5C2450.58 710.49 2455.08 718.33 2461.5 725C2465.32 726.02 2468.82 725.52 2472 723.5C2476.17 717.15 2479.84 710.49 2483 703.5C2484.12 700.56 2484.46 697.56 2484 694.5C2482.06 690.89 2479.72 687.56 2477 684.5C2473.72 677.06 2475.89 672.06 2483.5 669.5Z" fill="#4D4D4D"/>
<path fill-rule="evenodd" clip-rule="evenodd" d="M2528.5 667.5C2513.43 667.05 2498.43 667.72 2483.5 669.5C2486.2 668.04 2489.2 667.2 2492.5 667C2504.67 666.17 2516.67 666.34 2528.5 667.5Z" fill="#6D6D6D"/>
<path fill-rule="evenodd" clip-rule="evenodd" d="M2630.5 666.5C2631.5 666.5 2632.5 666.5 2633.5 666.5C2635.7 668.4 2638.36 669.4 2641.5 669.5C2670.9 679.73 2685.07 700.4 2684 731.5C2682.78 737.2 2679.61 741.2 2674.5 743.5C2649.83 743.33 2625.16 743.5 2600.5 744C2599.94 744.38 2599.61 744.88 2599.5 745.5C2598.89 750.66 2600.06 755.32 2603 759.5C2608.77 766.46 2615.93 771.12 2624.5 773.5C2627.64 774.64 2630.97 774.81 2634.5 774C2638.13 773.85 2641.47 773.02 2644.5 771.5C2647.72 771.65 2650.38 770.65 2652.5 768.5C2656.26 766.59 2659.93 764.42 2663.5 762C2666.17 761.33 2668.83 761.33 2671.5 762C2679.3 769.18 2680.47 777.35 2675 786.5C2666.23 796.11 2655.73 803.11 2643.5 807.5C2633.77 809.76 2623.94 811.43 2614 812.5C2607.46 812.12 2600.96 811.45 2594.5 810.5C2594.17 810.5 2593.83 810.5 2593.5 810.5C2591.9 808.93 2589.9 808.26 2587.5 808.5C2559.25 798.9 2542.92 779.23 2538.5 749.5C2538.45 740.48 2538.78 731.48 2539.5 722.5C2546.34 698.33 2561.34 681.33 2584.5 671.5C2588.77 670.74 2592.77 669.41 2596.5 667.5C2596.83 667.5 2597.17 667.5 2597.5 667.5C2608.47 666.59 2619.47 666.26 2630.5 666.5Z" fill="#4C4C4C"/>
<path fill-rule="evenodd" clip-rule="evenodd" d="M1733.5 666.5C1730.15 666.33 1726.82 666.5 1723.5 667C1720.65 668.43 1717.65 669.26 1714.5 669.5C1720.44 665.69 1726.77 664.69 1733.5 666.5Z" fill="#8B8B8B"/>
<path fill-rule="evenodd" clip-rule="evenodd" d="M2124.5 667.5C2121.68 667.13 2118.85 666.8 2116 666.5C2106.11 667.51 2096.28 668.84 2086.5 670.5C2098.08 666.63 2110.08 665.13 2122.5 666C2123.42 666.28 2124.08 666.78 2124.5 667.5Z" fill="#878787"/>
<path fill-rule="evenodd" clip-rule="evenodd" d="M2176.5 667.5C2168.68 667.08 2161.02 667.74 2153.5 669.5C2157.86 666.87 2162.69 665.53 2168 665.5C2171.15 665.36 2173.98 666.03 2176.5 667.5Z" fill="#858585"/>
<path fill-rule="evenodd" clip-rule="evenodd" d="M2258.5 668.5C2261.15 668.59 2263.49 667.92 2265.5 666.5C2262.85 666.41 2260.51 667.08 2258.5 668.5Z" fill="#8F8F8F"/>
<path fill-rule="evenodd" clip-rule="evenodd" d="M2374.5 668.5C2378.79 668.8 2382.79 668.14 2386.5 666.5C2382.21 666.2 2378.21 666.86 2374.5 668.5Z" fill="#818181"/>
<path fill-rule="evenodd" clip-rule="evenodd" d="M2633.5 666.5C2636.49 666.9 2639.15 667.9 2641.5 669.5C2638.36 669.4 2635.7 668.4 2633.5 666.5Z" fill="#868686"/>
<path fill-rule="evenodd" clip-rule="evenodd" d="M1650.5 669.5C1655.31 670.04 1659.65 669.04 1663.5 666.5C1659.01 667.34 1654.68 668.34 1650.5 669.5Z" fill="#7E7E7E"/>
<path fill-rule="evenodd" clip-rule="evenodd" d="M2584.5 671.5C2588.77 670.74 2592.77 669.41 2596.5 667.5C2592.08 667.86 2588.08 669.19 2584.5 671.5Z" fill="#7D7D7D"/>
<path fill-rule="evenodd" clip-rule="evenodd" d="M1685.5 667.5C1688.04 671.35 1689.04 675.69 1688.5 680.5C1687.6 676.24 1686.6 671.91 1685.5 667.5Z" fill="#858585"/>
<path fill-rule="evenodd" clip-rule="evenodd" d="M1627.5 676.5C1633.17 675.61 1638.5 673.94 1643.5 671.5C1637.83 672.39 1632.5 674.06 1627.5 676.5Z" fill="#7A7A7A"/>
<path fill-rule="evenodd" clip-rule="evenodd" d="M1465.5 644.5C1464.06 647.32 1462.89 650.32 1462 653.5C1461.1 680.16 1460.6 706.83 1460.5 733.5C1459.83 726.17 1459.5 718.67 1459.5 711C1459.92 691.5 1460.42 672 1461 652.5C1461.49 649.15 1462.99 646.48 1465.5 644.5Z" fill="#BBBBBB"/>
<path fill-rule="evenodd" clip-rule="evenodd" d="M552.5 669.5C554.175 672.61 555.842 675.94 557.5 679.5C558.156 681.45 558.489 683.45 558.5 685.5C555.536 680.62 553.536 675.28 552.5 669.5Z" fill="#7A7A7A"/>
<path fill-rule="evenodd" clip-rule="evenodd" d="M1586.5 646.5C1586 676 1585.34 705.33 1584.5 734.5C1584.33 707.5 1584.5 680.5 1585 653.5C1585.19 650.96 1585.69 648.63 1586.5 646.5Z" fill="#909090"/>
<path fill-rule="evenodd" clip-rule="evenodd" d="M879.5 658.5C879.649 661.61 879.149 664.61 878 667.5C875.106 674.05 871.939 680.38 868.5 686.5C871.808 676.89 875.475 667.55 879.5 658.5Z" fill="#7C7C7C"/>
<path fill-rule="evenodd" clip-rule="evenodd" d="M1267.5 670.5C1266.08 678.22 1263.74 685.55 1260.5 692.5C1260.86 684.43 1263.19 677.1 1267.5 670.5Z" fill="#727272"/>
<path fill-rule="evenodd" clip-rule="evenodd" d="M565.5 701.5C565.269 695.46 562.936 690.46 558.5 686.5C560.597 691.69 562.93 696.69 565.5 701.5Z" fill="#777777"/>
<path fill-rule="evenodd" clip-rule="evenodd" d="M2607.5 691.5C2625.82 689.64 2632.82 697.47 2628.5 715C2627.69 715.31 2627.03 715.81 2626.5 716.5C2618.19 717.67 2609.85 717.83 2601.5 717C2597.8 713.6 2596.63 709.44 2598 704.5C2600.22 699.35 2603.39 695.02 2607.5 691.5Z" fill="#F7F7F7"/>
<path fill-rule="evenodd" clip-rule="evenodd" d="M863.5 697.5C866.093 694.45 867.759 690.78 868.5 686.5C866.277 689.8 864.61 693.47 863.5 697.5Z" fill="#797979"/>
<path fill-rule="evenodd" clip-rule="evenodd" d="M1756.5 684.5C1757.79 685.84 1758.63 687.51 1759 689.5C1759.82 695.02 1759.65 700.35 1758.5 705.5C1758.89 698.35 1758.22 691.35 1756.5 684.5Z" fill="#898989"/>
<path fill-rule="evenodd" clip-rule="evenodd" d="M2025.5 696.5C2022.81 697.99 2019.81 698.66 2016.5 698.5C2014.3 698.5 2012.3 698.16 2010.5 697.5C2015.54 697.59 2020.54 697.25 2025.5 696.5Z" fill="#C8C8C8"/>
<path fill-rule="evenodd" clip-rule="evenodd" d="M632.5 692.5C635.244 695.65 637.244 699.31 638.5 703.5C637.504 703.59 636.671 703.25 636 702.5C634.53 699.26 633.363 695.92 632.5 692.5Z" fill="#757575"/>
<path fill-rule="evenodd" clip-rule="evenodd" d="M1260.5 692.5C1259.27 697.88 1257.27 702.88 1254.5 707.5C1254.34 705.47 1254.5 703.47 1255 701.5C1256.58 698.26 1258.42 695.26 1260.5 692.5Z" fill="#787878"/>
<path fill-rule="evenodd" clip-rule="evenodd" d="M853.5 713.5C856.68 711.73 858.68 709.06 859.5 705.5C856.738 707.6 854.738 710.26 853.5 713.5Z" fill="#828282"/>
<path fill-rule="evenodd" clip-rule="evenodd" d="M1843.5 695.5C1842.17 705.83 1842.17 716.17 1843.5 726.5C1842.78 726.08 1842.28 725.42 1842 724.5C1841.33 715.83 1841.33 707.17 1842 698.5C1842.23 697.26 1842.73 696.26 1843.5 695.5Z" fill="#C1C1C1"/>
<path fill-rule="evenodd" clip-rule="evenodd" d="M1389.5 650.5C1390.3 651.95 1390.8 653.62 1391 655.5C1391.02 682.83 1390.86 710.16 1390.5 737.5C1389.94 708.65 1389.61 679.65 1389.5 650.5Z" fill="#9F9F9F"/>
<path fill-rule="evenodd" clip-rule="evenodd" d="M1251.5 714.5C1249.66 719.52 1247.33 724.18 1244.5 728.5C1244.74 722.69 1247.07 718.02 1251.5 714.5Z" fill="#747474"/>
<path fill-rule="evenodd" clip-rule="evenodd" d="M2217.5 717.5C2221.67 719.06 2226.01 719.73 2230.5 719.5C2227.7 720.64 2224.7 720.8 2221.5 720C2219.68 719.8 2218.35 718.97 2217.5 717.5Z" fill="#C0C0C0"/>
<path fill-rule="evenodd" clip-rule="evenodd" d="M848.5 721.5C851.164 719.52 852.831 716.85 853.5 713.5C851.336 715.82 849.669 718.49 848.5 721.5Z" fill="#A8A8A8"/>
<path fill-rule="evenodd" clip-rule="evenodd" d="M1741.5 728.5C1740.03 730.41 1738.03 731.58 1735.5 732C1728.99 732.82 1722.65 732.65 1716.5 731.5C1725.11 732.23 1733.44 731.23 1741.5 728.5Z" fill="#BFBFBF"/>
<path fill-rule="evenodd" clip-rule="evenodd" d="M2240.5 731.5C2243.15 731.59 2245.49 730.92 2247.5 729.5C2244.85 729.41 2242.51 730.08 2240.5 731.5Z" fill="#9B9B9B"/>
<path fill-rule="evenodd" clip-rule="evenodd" d="M1623.5 709.5C1624.22 709.92 1624.72 710.58 1625 711.5C1625.67 727.83 1625.67 744.17 1625 760.5C1624.37 764.35 1623.53 768.01 1622.5 771.5C1624.68 750.86 1625.01 730.2 1623.5 709.5Z" fill="#BABABA"/>
<path fill-rule="evenodd" clip-rule="evenodd" d="M2154.5 730.5C2159.46 731.25 2164.46 731.59 2169.5 731.5C2165.35 732.65 2161.02 732.81 2156.5 732C2155.58 731.72 2154.92 731.22 2154.5 730.5Z" fill="#959595"/>
<path fill-rule="evenodd" clip-rule="evenodd" d="M1690.5 718.5C1688.93 725.7 1688.27 733.03 1688.5 740.5C1688.74 750.17 1689.07 759.84 1689.5 769.5C1687.97 760.55 1687.3 751.39 1687.5 742C1687.67 735.5 1687.83 729 1688 722.5C1688.2 720.68 1689.03 719.35 1690.5 718.5Z" fill="#898989"/>
<path fill-rule="evenodd" clip-rule="evenodd" d="M587.5 741.5C587.408 737.32 585.741 733.98 582.5 731.5C583.758 735.08 585.425 738.41 587.5 741.5Z" fill="#787878"/>
<path fill-rule="evenodd" clip-rule="evenodd" d="M653.5 726.5C657.262 729.93 660.262 733.93 662.5 738.5C660.629 738.14 659.129 737.14 658 735.5C655.788 732.81 654.288 729.81 653.5 726.5Z" fill="#6C6C6C"/>
<path fill-rule="evenodd" clip-rule="evenodd" d="M2229.5 735.5C2233.53 734.98 2237.2 733.64 2240.5 731.5C2236.47 732.02 2232.8 733.36 2229.5 735.5Z" fill="#858585"/>
<path fill-rule="evenodd" clip-rule="evenodd" d="M2539.5 722.5C2538.78 731.48 2538.45 740.48 2538.5 749.5C2537.83 745.85 2537.5 742.02 2537.5 738C2537.28 732.57 2537.95 727.4 2539.5 722.5Z" fill="#6F6F6F"/>
<path fill-rule="evenodd" clip-rule="evenodd" d="M825.5 750.5C834.901 741.94 842.567 732.27 848.5 721.5C841.076 731.34 833.41 741.01 825.5 750.5Z" fill="#9A9A9A"/>
<path fill-rule="evenodd" clip-rule="evenodd" d="M1244.5 728.5C1243.4 731.04 1242.07 733.37 1240.5 735.5C1240.57 732.34 1241.91 730.01 1244.5 728.5Z" fill="#8B8B8B"/>
<path fill-rule="evenodd" clip-rule="evenodd" d="M2674.5 743.5C2649.63 744.18 2624.63 744.85 2599.5 745.5C2599.61 744.88 2599.94 744.38 2600.5 744C2625.16 743.5 2649.83 743.33 2674.5 743.5Z" fill="#A0A0A0"/>
<path fill-rule="evenodd" clip-rule="evenodd" d="M1584.5 736.5C1584.67 741.18 1584.5 745.85 1584 750.5C1583.85 754.13 1583.02 757.47 1581.5 760.5C1582.37 752.34 1583.37 744.34 1584.5 736.5Z" fill="#949494"/>
<path fill-rule="evenodd" clip-rule="evenodd" d="M1540.5 748.5C1542.21 747.36 1542.88 745.7 1542.5 743.5C1541.46 744.93 1540.8 746.6 1540.5 748.5Z" fill="#A1A1A1"/>
<path fill-rule="evenodd" clip-rule="evenodd" d="M2278.5 779.5C2274.9 780.34 2271.23 780.68 2267.5 780.5C2264.1 778.57 2261.93 775.57 2261 771.5C2258.34 759.13 2263 751.46 2275 748.5C2278.63 747.98 2281.3 749.31 2283 752.5C2284.05 760.66 2283.38 768.66 2281 776.5C2279.96 777.37 2279.12 778.37 2278.5 779.5Z" fill="#FBFBFB"/>
<path fill-rule="evenodd" clip-rule="evenodd" d="M1993.5 758.5C1993.39 759.12 1993.06 759.62 1992.5 760C1983.7 761.64 1975.04 761.81 1966.5 760.5C1975.59 760.83 1984.59 760.16 1993.5 758.5Z" fill="#7B7B7B"/>
<path fill-rule="evenodd" clip-rule="evenodd" d="M825.5 750.5C822.772 754.74 819.439 758.57 815.5 762C810.559 766.79 805.225 770.95 799.5 774.5C807.84 766.16 816.507 758.16 825.5 750.5Z" fill="#898989"/>
<path fill-rule="evenodd" clip-rule="evenodd" d="M1488.5 767.5C1496.71 769.23 1505.05 769.9 1513.5 769.5C1507.01 770.65 1500.35 770.82 1493.5 770C1491.69 769.24 1490.02 768.41 1488.5 767.5Z" fill="#999999"/>
<path fill-rule="evenodd" clip-rule="evenodd" d="M2644.5 771.5C2647.72 771.65 2650.38 770.65 2652.5 768.5C2649.6 769.13 2646.94 770.13 2644.5 771.5Z" fill="#949494"/>
<path fill-rule="evenodd" clip-rule="evenodd" d="M2350.5 771.5C2353.15 771.41 2355.49 772.08 2357.5 773.5C2354.77 773.83 2352.44 773.16 2350.5 771.5Z" fill="#B7B7B7"/>
<path fill-rule="evenodd" clip-rule="evenodd" d="M2644.5 771.5C2641.47 773.02 2638.13 773.85 2634.5 774C2630.97 774.81 2627.64 774.64 2624.5 773.5C2631.22 773.3 2637.88 772.64 2644.5 771.5Z" fill="#909090"/>
<path fill-rule="evenodd" clip-rule="evenodd" d="M1693.5 776.5C1697.36 776.77 1700.69 778.1 1703.5 780.5C1699.85 779.73 1696.52 778.4 1693.5 776.5Z" fill="#B9B9B9"/>
<path fill-rule="evenodd" clip-rule="evenodd" d="M2133.5 776.5C2136.95 777.08 2139.95 778.42 2142.5 780.5C2139.05 779.92 2136.05 778.58 2133.5 776.5Z" fill="#9D9D9D"/>
<path fill-rule="evenodd" clip-rule="evenodd" d="M2278.5 779.5C2278.39 780.12 2278.06 780.62 2277.5 781C2273.97 781.81 2270.64 781.64 2267.5 780.5C2271.23 780.68 2274.9 780.34 2278.5 779.5Z" fill="#A8A8A8"/>
<path fill-rule="evenodd" clip-rule="evenodd" d="M627.5 791.5C628.583 791.54 629.583 791.87 630.5 792.5C633.699 796.2 637.365 799.36 641.5 802C643.807 804.13 645.474 806.63 646.5 809.5C639.483 804.15 633.149 798.15 627.5 791.5Z" fill="#717171"/>
<path fill-rule="evenodd" clip-rule="evenodd" d="M2019.5 793.5C2017.38 795.65 2014.72 796.65 2011.5 796.5C2013.94 795.13 2016.6 794.13 2019.5 793.5Z" fill="#BBBBBB"/>
<path fill-rule="evenodd" clip-rule="evenodd" d="M1451.5 808.5C1449.49 807.08 1447.15 806.41 1444.5 806.5C1446.51 807.92 1448.85 808.59 1451.5 808.5Z" fill="#A6A6A6"/>
<path fill-rule="evenodd" clip-rule="evenodd" d="M1924.5 809.5C1922.49 808.08 1920.15 807.41 1917.5 807.5C1919.51 808.92 1921.85 809.59 1924.5 809.5Z" fill="#A6A6A6"/>
<path fill-rule="evenodd" clip-rule="evenodd" d="M2062.5 808.5C2060.9 806.93 2058.9 806.26 2056.5 806.5C2058.1 808.07 2060.1 808.74 2062.5 808.5Z" fill="#9E9E9E"/>
<path fill-rule="evenodd" clip-rule="evenodd" d="M2143.5 806.5C2142.65 807.97 2141.32 808.8 2139.5 809C2137.19 809.5 2134.86 809.66 2132.5 809.5C2136.08 808.61 2139.75 807.61 2143.5 806.5Z" fill="#BDBDBD"/>
<path fill-rule="evenodd" clip-rule="evenodd" d="M1526.5 807.5C1524.49 808.92 1522.15 809.59 1519.5 809.5C1521.51 808.08 1523.85 807.41 1526.5 807.5Z" fill="#B1B1B1"/>
<path fill-rule="evenodd" clip-rule="evenodd" d="M1626.5 809.5C1624.9 807.93 1622.9 807.26 1620.5 807.5C1622.1 809.07 1624.1 809.74 1626.5 809.5Z" fill="#A6A6A6"/>
<path fill-rule="evenodd" clip-rule="evenodd" d="M1981.5 807.5C1979.49 808.92 1977.15 809.59 1974.5 809.5C1976.51 808.08 1978.85 807.41 1981.5 807.5Z" fill="#B4B4B4"/>
<path fill-rule="evenodd" clip-rule="evenodd" d="M2078.5 810.5C2073.38 809.19 2068.05 808.53 2062.5 808.5C2067.58 810.08 2072.92 810.75 2078.5 810.5Z" fill="#828282"/>
<path fill-rule="evenodd" clip-rule="evenodd" d="M2223.5 807.5C2234.85 811.14 2246.51 812.48 2258.5 811.5C2247.09 813.38 2235.76 812.55 2224.5 809C2223.94 808.62 2223.61 808.12 2223.5 807.5Z" fill="#A8A8A8"/>
<path fill-rule="evenodd" clip-rule="evenodd" d="M1699.5 808.5C1698.74 809.27 1697.74 809.77 1696.5 810C1693.18 810.5 1689.85 810.67 1686.5 810.5C1690.57 808.95 1694.9 808.28 1699.5 808.5Z" fill="#C9C9C9"/>
<path fill-rule="evenodd" clip-rule="evenodd" d="M2593.5 810.5C2591.9 808.93 2589.9 808.26 2587.5 808.5C2589.1 810.07 2591.1 810.74 2593.5 810.5Z" fill="#9A9A9A"/>
<path fill-rule="evenodd" clip-rule="evenodd" d="M1517.5 809.5C1517.39 810.12 1517.06 810.62 1516.5 811C1511.54 811.91 1506.54 812.41 1501.5 812.5C1506.56 810.78 1511.9 809.78 1517.5 809.5Z" fill="#BDBDBD"/>
<path fill-rule="evenodd" clip-rule="evenodd" d="M1925.5 809.5C1937.76 811.25 1950.09 811.92 1962.5 811.5C1953.01 812.66 1943.34 812.82 1933.5 812C1930.48 811.9 1927.81 811.07 1925.5 809.5Z" fill="#A4A4A4"/>
<path fill-rule="evenodd" clip-rule="evenodd" d="M1972.5 809.5C1972.08 810.22 1971.42 810.72 1970.5 811C1967.85 811.5 1965.19 811.66 1962.5 811.5C1965.63 810.42 1968.96 809.75 1972.5 809.5Z" fill="#AAAAAA"/>
<path fill-rule="evenodd" clip-rule="evenodd" d="M2132.5 809.5C2127.45 811.26 2122.11 811.93 2116.5 811.5C2121.6 810.04 2126.93 809.38 2132.5 809.5Z" fill="#C7C7C7"/>
<path fill-rule="evenodd" clip-rule="evenodd" d="M1686.5 810.5C1668.5 810.5 1650.5 810.5 1632.5 810.5C1650.49 813.05 1668.49 813.05 1686.5 810.5Z" fill="#BFBFBF"/>
<path fill-rule="evenodd" clip-rule="evenodd" d="M2335.5 809.5C2333.72 810.6 2331.72 811.43 2329.5 812C2322.65 812.82 2315.99 812.65 2309.5 811.5C2318.26 811.81 2326.92 811.14 2335.5 809.5Z" fill="#9A9A9A"/>
<path fill-rule="evenodd" clip-rule="evenodd" d="M2441.5 811.5C2445.14 812.11 2448.8 812.45 2452.5 812.5C2451.21 813.16 2449.71 813.49 2448 813.5C2445.46 813.66 2443.29 813 2441.5 811.5Z" fill="#B8B8B8"/>
<path fill-rule="evenodd" clip-rule="evenodd" d="M2643.5 807.5C2643.39 808.12 2643.06 808.62 2642.5 809C2630.08 812.77 2617.42 814.11 2604.5 813C2600.87 812.85 2597.53 812.02 2594.5 810.5C2600.96 811.45 2607.46 812.12 2614 812.5C2623.94 811.43 2633.77 809.76 2643.5 807.5Z" fill="#C3C3C3"/>
<path fill-rule="evenodd" clip-rule="evenodd" d="M656.5 817.5C655.415 815.41 653.749 814.08 651.5 813.5C652.585 815.59 654.251 816.92 656.5 817.5Z" fill="#8A8A8A"/>
<path fill-rule="evenodd" clip-rule="evenodd" d="M714.5 855.5C712.119 851.25 708.453 849.25 703.5 849.5C706.723 852.25 710.389 854.25 714.5 855.5Z" fill="#747474"/>
<path fill-rule="evenodd" clip-rule="evenodd" d="M728.5 862.5C724.866 858.28 720.199 855.94 714.5 855.5C718.88 858.36 723.547 860.69 728.5 862.5Z" fill="#7C7C7C"/>
<path fill-rule="evenodd" clip-rule="evenodd" d="M1113.5 855.5C1111.82 857.01 1109.82 858.01 1107.5 858.5C1108.91 856.46 1110.91 855.46 1113.5 855.5Z" fill="#9A9A9A"/>
<path fill-rule="evenodd" clip-rule="evenodd" d="M1107.5 858.5C1105.75 859.87 1103.75 860.87 1101.5 861.5C1102.78 859.39 1104.78 858.39 1107.5 858.5Z" fill="#8A8A8A"/>
<path fill-rule="evenodd" clip-rule="evenodd" d="M1100.5 861.5C1098.97 863.25 1096.97 864.25 1094.5 864.5C1096.03 862.75 1098.03 861.75 1100.5 861.5Z" fill="#919191"/>
<path fill-rule="evenodd" clip-rule="evenodd" d="M740.5 867.5C737.487 863.67 733.487 862 728.5 862.5C732.203 864.68 736.203 866.35 740.5 867.5Z" fill="#747474"/>
<path fill-rule="evenodd" clip-rule="evenodd" d="M1094.5 864.5C1092.49 866.07 1090.16 867.07 1087.5 867.5C1089.32 865.55 1091.65 864.55 1094.5 864.5Z" fill="#939393"/>
<path fill-rule="evenodd" clip-rule="evenodd" d="M1085.5 868.5C1080.88 870.16 1076.21 871.83 1071.5 873.5C1075.55 870.35 1080.21 868.68 1085.5 868.5Z" fill="#7A7A7A"/>
<path fill-rule="evenodd" clip-rule="evenodd" d="M1071.5 873.5C1069.4 875.48 1066.74 876.48 1063.5 876.5C1065.85 874.9 1068.51 873.9 1071.5 873.5Z" fill="#B9B9B9"/>
<path fill-rule="evenodd" clip-rule="evenodd" d="M773.5 879.5C771.485 878.08 769.152 877.41 766.5 877.5C768.515 878.92 770.848 879.59 773.5 879.5Z" fill="#929292"/>
<path fill-rule="evenodd" clip-rule="evenodd" d="M1053.5 879.5C1050.5 881.28 1047.16 882.28 1043.5 882.5C1046.34 880.21 1049.68 879.21 1053.5 879.5Z" fill="#757575"/>
<path fill-rule="evenodd" clip-rule="evenodd" d="M783.5 882.5C780.808 879.86 777.475 878.86 773.5 879.5C776.505 881.28 779.838 882.28 783.5 882.5Z" fill="#747474"/>
<path fill-rule="evenodd" clip-rule="evenodd" d="M794.5 885.5C792.401 884.39 790.067 883.72 787.5 883.5C789.438 885.16 791.772 885.83 794.5 885.5Z" fill="#9A9A9A"/>
<path fill-rule="evenodd" clip-rule="evenodd" d="M1039.5 883.5C1033.14 885.91 1026.47 887.58 1019.5 888.5C1025.8 885.86 1032.46 884.2 1039.5 883.5Z" fill="#7C7C7C"/>
<path fill-rule="evenodd" clip-rule="evenodd" d="M831.5 893.5C823.391 891.31 815.058 889.64 806.5 888.5C814.515 891.12 822.848 892.78 831.5 893.5Z" fill="#979797"/>
<path fill-rule="evenodd" clip-rule="evenodd" d="M1019.5 888.5C1012.45 890.71 1005.11 892.04 997.5 892.5C1004.38 889.42 1011.72 888.08 1019.5 888.5Z" fill="#737373"/>
<path fill-rule="evenodd" clip-rule="evenodd" d="M991.5 893.5C987.1 895.1 982.434 895.77 977.5 895.5C981.964 894.36 986.63 893.69 991.5 893.5Z" fill="#8C8C8C"/>
<path fill-rule="evenodd" clip-rule="evenodd" d="M881.5 898.5C865.957 896.95 850.29 895.28 834.5 893.5C849.863 896.74 865.53 898.4 881.5 898.5Z" fill="#838383"/>
<path fill-rule="evenodd" clip-rule="evenodd" d="M977.5 895.5C966.067 897.55 954.401 898.55 942.5 898.5C953.92 896.31 965.586 895.31 977.5 895.5Z" fill="#777777"/>
</svg>
